<?xml version="1.0" standalone="no"?>
<!DOCTYPE svg PUBLIC "-//W3C//DTD SVG 20010904//EN"
 "http://www.w3.org/TR/2001/REC-SVG-20010904/DTD/svg10.dtd">
<svg version="1.0" xmlns="http://www.w3.org/2000/svg"
 width="2962.000000pt" height="622.000000pt" viewBox="0 0 2962.000000 622.000000"
 preserveAspectRatio="xMidYMid meet">

<g transform="translate(0.000000,622.000000) scale(0.100000,-0.100000)"
fill="#000000" stroke="none">
<path d="M1418 6203 l-28 -14 0 -170 0 -169 710 0 710 0 0 185 0 185 -682 -1
c-576 -1 -687 -3 -710 -16z"/>
<path d="M8840 3105 l0 -2545 55 0 55 0 0 2545 0 2545 -55 0 -55 0 0 -2545z"/>
<path d="M10470 4430 l0 -1220 405 0 405 0 0 940 0 940 163 0 c90 0 190 -5
223 -11 51 -10 66 -19 117 -68 62 -60 102 -131 113 -198 5 -31 0 -61 -20 -120
-28 -83 -61 -126 -121 -156 -40 -20 -135 -37 -207 -37 -32 0 -58 -4 -58 -10 0
-11 165 -425 323 -810 57 -140 119 -295 137 -345 18 -49 40 -98 48 -107 14
-17 47 -18 422 -18 l408 0 -103 248 c-56 136 -140 337 -187 447 -132 310 -162
394 -145 414 7 9 38 45 69 81 38 45 69 95 97 160 l41 95 0 150 c-1 270 -23
349 -148 525 -49 68 -81 100 -159 158 -54 39 -124 86 -155 102 -113 59 -127
60 -934 60 l-734 0 0 -1220z"/>
<path d="M12449 5558 c22 -51 76 -172 121 -268 143 -305 240 -521 240 -536 0
-8 40 -108 89 -222 49 -114 164 -389 256 -612 92 -223 196 -472 230 -555 l63
-150 421 -3 421 -2 0 637 c0 350 3 633 7 629 4 -4 17 -49 30 -101 18 -74 223
-612 428 -1122 l17 -43 419 0 419 0 0 940 0 940 285 0 285 0 0 -940 0 -940
405 0 405 0 0 940 0 940 285 0 285 0 0 -940 0 -940 405 0 405 0 0 505 0 505
285 0 285 0 0 -505 0 -505 405 0 405 0 0 1220 0 1220 -405 0 -405 0 0 -435 0
-435 -285 0 -285 0 0 435 0 435 -1630 0 -1630 0 -2 -612 c-3 -516 -5 -608 -16
-583 -7 17 -47 113 -89 215 -61 148 -357 831 -413 953 l-13 27 -409 0 -408 0
0 -545 c0 -353 4 -562 11 -595 6 -27 9 -55 7 -61 -2 -5 -63 129 -136 298 -73
169 -190 441 -260 603 l-127 295 -422 3 -422 2 38 -92z"/>
<path d="M3190 1825 l0 -1265 250 0 250 0 0 1265 0 1265 -250 0 -250 0 0
-1265z"/>
<path d="M3860 2880 l0 -210 280 0 280 0 2 -1052 3 -1053 248 -3 247 -2 0
1055 0 1055 285 0 285 0 0 210 0 210 -815 0 -815 0 0 -210z"/>
<path d="M5960 3048 c-6 -24 -27 -101 -47 -173 -19 -71 -46 -170 -58 -220 -13
-49 -94 -353 -180 -675 -87 -322 -166 -619 -176 -660 -21 -79 -54 -207 -144
-539 -30 -113 -55 -208 -55 -213 0 -4 118 -8 263 -8 l262 0 70 268 70 267 334
3 c184 1 338 -1 342 -5 4 -5 30 -118 59 -253 28 -135 53 -253 56 -262 5 -17
26 -18 265 -18 187 0 259 3 259 11 0 10 -201 774 -295 1119 -19 69 -81 305
-140 525 -58 220 -117 441 -130 490 -14 50 -42 155 -63 235 l-38 145 -322 3
-321 2 -11 -42z m360 -415 c0 -9 18 -98 40 -197 151 -686 200 -910 200 -918 0
-4 -115 -8 -255 -8 -140 0 -255 2 -255 4 0 2 29 139 65 303 36 164 91 415 121
558 31 143 58 266 60 273 5 18 24 5 24 -15z"/>
<path d="M1390 192 l0 -169 25 -11 c19 -9 212 -12 710 -12 l685 0 0 180 0 180
-710 0 -710 0 0 -168z"/>
</g>
</svg>
